<svg width="36" height="30" viewBox="0 0 36 30" fill="none" xmlns="http://www.w3.org/2000/svg">
<path d="M5.375 30V26.6667H30.4583V30H5.375ZM5.375 24.1667L3.09062 10.7917C3.0309 10.7917 2.96372 10.7986 2.88906 10.8125C2.81441 10.8264 2.74722 10.8333 2.6875 10.8333C1.94097 10.8333 1.30642 10.5903 0.783854 10.1042C0.261285 9.61806 0 9.02778 0 8.33333C0 7.63889 0.261285 7.04861 0.783854 6.5625C1.30642 6.07639 1.94097 5.83333 2.6875 5.83333C3.43403 5.83333 4.06858 6.07639 4.59115 6.5625C5.11372 7.04861 5.375 7.63889 5.375 8.33333C5.375 8.52778 5.3526 8.70833 5.30781 8.875C5.26302 9.04167 5.21076 9.19444 5.15104 9.33333L10.75 11.6667L16.349 4.54167C16.0205 4.31944 15.7517 4.02778 15.5427 3.66667C15.3337 3.30556 15.2292 2.91667 15.2292 2.5C15.2292 1.80556 15.4905 1.21528 16.013 0.729167C16.5356 0.243056 17.1701 0 17.9167 0C18.6632 0 19.2977 0.243056 19.8203 0.729167C20.3429 1.21528 20.6042 1.80556 20.6042 2.5C20.6042 2.91667 20.4997 3.30556 20.2906 3.66667C20.0816 4.02778 19.8128 4.31944 19.4844 4.54167L25.0833 11.6667L30.6823 9.33333C30.6226 9.19444 30.5703 9.04167 30.5255 8.875C30.4807 8.70833 30.4583 8.52778 30.4583 8.33333C30.4583 7.63889 30.7196 7.04861 31.2422 6.5625C31.7648 6.07639 32.3993 5.83333 33.1458 5.83333C33.8924 5.83333 34.5269 6.07639 35.0495 6.5625C35.572 7.04861 35.8333 7.63889 35.8333 8.33333C35.8333 9.02778 35.572 9.61806 35.0495 10.1042C34.5269 10.5903 33.8924 10.8333 33.1458 10.8333C33.0861 10.8333 33.0189 10.8264 32.9443 10.8125C32.8696 10.7986 32.8024 10.7917 32.7427 10.7917L30.4583 24.1667H5.375ZM8.42083 20.8333H27.4125L28.5771 13.875L23.874 15.7917L17.9167 8.16667L11.9594 15.7917L7.25625 13.875L8.42083 20.8333Z" fill="#2794AA"/>
</svg>
