<svg width="97" height="89" viewBox="0 0 97 89" fill="none" xmlns="http://www.w3.org/2000/svg">
<path d="M18.6083 66.6917C22.7167 63.8208 27.3083 61.5573 32.3833 59.901C37.4583 58.2448 42.775 57.4167 48.3333 57.4167C53.8917 57.4167 59.2083 58.2448 64.2833 59.901C69.3583 61.5573 73.95 63.8208 78.0583 66.6917C80.8778 63.6736 83.0729 60.2507 84.6437 56.4229C86.2146 52.5951 87 48.5097 87 44.1667C87 34.3764 83.234 26.0399 75.7021 19.1573C68.1701 12.2747 59.0472 8.83333 48.3333 8.83333C37.6194 8.83333 28.4965 12.2747 20.9646 19.1573C13.4326 26.0399 9.66667 34.3764 9.66667 44.1667C9.66667 48.5097 10.4521 52.5951 12.0229 56.4229C13.5938 60.2507 15.7889 63.6736 18.6083 66.6917ZM48.3333 48.5833C43.5806 48.5833 39.5729 47.0927 36.3104 44.1115C33.0479 41.1302 31.4167 37.4681 31.4167 33.125C31.4167 28.7819 33.0479 25.1198 36.3104 22.1385C39.5729 19.1573 43.5806 17.6667 48.3333 17.6667C53.0861 17.6667 57.0938 19.1573 60.3562 22.1385C63.6187 25.1198 65.25 28.7819 65.25 33.125C65.25 37.4681 63.6187 41.1302 60.3562 44.1115C57.0938 47.0927 53.0861 48.5833 48.3333 48.5833ZM48.3333 88.3333C41.6472 88.3333 35.3639 87.174 29.4833 84.8552C23.6028 82.5365 18.4875 79.3896 14.1375 75.4146C9.7875 71.4396 6.34375 66.7653 3.80625 61.3917C1.26875 56.0181 0 50.2764 0 44.1667C0 38.0569 1.26875 32.3153 3.80625 26.9417C6.34375 21.5681 9.7875 16.8938 14.1375 12.9188C18.4875 8.94375 23.6028 5.79688 29.4833 3.47813C35.3639 1.15938 41.6472 0 48.3333 0C55.0194 0 61.3028 1.15938 67.1833 3.47813C73.0639 5.79688 78.1792 8.94375 82.5292 12.9188C86.8792 16.8938 90.3229 21.5681 92.8604 26.9417C95.3979 32.3153 96.6667 38.0569 96.6667 44.1667C96.6667 50.2764 95.3979 56.0181 92.8604 61.3917C90.3229 66.7653 86.8792 71.4396 82.5292 75.4146C78.1792 79.3896 73.0639 82.5365 67.1833 84.8552C61.3028 87.174 55.0194 88.3333 48.3333 88.3333ZM48.3333 79.5C52.6028 79.5 56.6306 78.9295 60.4167 77.7885C64.2028 76.6476 67.6667 75.0097 70.8083 72.875C67.6667 70.7403 64.2028 69.1024 60.4167 67.9615C56.6306 66.8205 52.6028 66.25 48.3333 66.25C44.0639 66.25 40.0361 66.8205 36.25 67.9615C32.4639 69.1024 29 70.7403 25.8583 72.875C29 75.0097 32.4639 76.6476 36.25 77.7885C40.0361 78.9295 44.0639 79.5 48.3333 79.5ZM48.3333 39.75C50.4278 39.75 52.1597 39.1243 53.5292 37.8729C54.8986 36.6215 55.5833 35.0389 55.5833 33.125C55.5833 31.2111 54.8986 29.6285 53.5292 28.3771C52.1597 27.1257 50.4278 26.5 48.3333 26.5C46.2389 26.5 44.5069 27.1257 43.1375 28.3771C41.7681 29.6285 41.0833 31.2111 41.0833 33.125C41.0833 35.0389 41.7681 36.6215 43.1375 37.8729C44.5069 39.1243 46.2389 39.75 48.3333 39.75Z" fill="#EF73B9"/>
</svg>
